HIERARCHY
ROOT Hips
{
  OFFSET 5.80788e-005 67.184 3.4734
  CHANNELS 6 Xposition Yposition Zposition Zrotation Xrotation Yrotation
  JOINT Chest
  {
    OFFSET 0 8.7983 -4.7612
    CHANNELS 3 Zrotation Xrotation Yrotation
    JOINT Chest2
    {
      OFFSET 0 8.0291 0.4195
      CHANNELS 3 Zrotation Xrotation Yrotation
      JOINT Chest3
      {
        OFFSET 0 9.9351 -2.2114
        CHANNELS 3 Zrotation Xrotation Yrotation
        JOINT Neck
        {
          OFFSET 0 22.3885 -0.4656
          CHANNELS 3 Zrotation Xrotation Yrotation
          JOINT Head
          {
            OFFSET -0.0001 12.643 3.4389
            CHANNELS 3 Zrotation Xrotation Yrotation
            End Site
            {
              OFFSET 0.0001 17.6655 0.5274
            }
          }
        }
        JOINT LeftCollar
        {
          OFFSET 2.2603 21.606 7.4023
          CHANNELS 3 Zrotation Xrotation Yrotation
          JOINT LeftShoulder
          {
            OFFSET 13.5163 -1.1332 -5.0146
            CHANNELS 3 Zrotation Xrotation Yrotation
            JOINT LeftElbow
            {
              OFFSET -0.0995 -28.05 -0.2431
              CHANNELS 3 Zrotation Xrotation Yrotation
              JOINT LeftWrist
              {
                OFFSET 0.0679 -23.3996 -0.1402
                CHANNELS 3 Zrotation Xrotation Yrotation
                JOINT LeftFinger1
                {
                  OFFSET 0.7932 -9.069 2.5189
                  CHANNELS 3 Zrotation Xrotation Yrotation
                  JOINT LeftFinger11
                  {
                    OFFSET -0.8272 -3.3923 0.5977
                    CHANNELS 3 Zrotation Xrotation Yrotation
                    JOINT LeftFinger12
                    {
                      OFFSET -0.5649 -2.3158 0.4082
                      CHANNELS 3 Zrotation Xrotation Yrotation
                      End Site
                      {
                        OFFSET -0.4919 -1.6479 0.2673
                      }
                    }
                  }
                }
                JOINT LeftFinger2
                {
                  OFFSET 0.9159 -9.2044 0.2193
                  CHANNELS 3 Zrotation Xrotation Yrotation
                  JOINT LeftFinger21
                  {
                    OFFSET 0.0117 -4.1944 -0.0248
                    CHANNELS 3 Zrotation Xrotation Yrotation
                    JOINT LeftFinger22
                    {
                      OFFSET 0.0071 -2.3249 -0.0142
                      CHANNELS 3 Zrotation Xrotation Yrotation
                      End Site
                      {
                        OFFSET -0.1475 -2.0882 0.0028
                      }
                    }
                  }
                }
                JOINT LeftFinger3
                {
                  OFFSET 0.6113 -8.7231 -2.0637
                  CHANNELS 3 Zrotation Xrotation Yrotation
                  JOINT LeftFinger31
                  {
                    OFFSET -0.1927 -3.8059 -0.2383
                    CHANNELS 3 Zrotation Xrotation Yrotation
                    JOINT LeftFinger32
                    {
                      OFFSET -0.1091 -2.1688 -0.1362
                      CHANNELS 3 Zrotation Xrotation Yrotation
                      End Site
                      {
                        OFFSET -0.2358 -1.9176 -0.0906
                      }
                    }
                  }
                }
                JOINT LeftFinger4
                {
                  OFFSET -0.6151 -8.0947 -3.5641
                  CHANNELS 3 Zrotation Xrotation Yrotation
                  JOINT LeftFinger41
                  {
                    OFFSET -0.4882 -2.341 -0.6462
                    CHANNELS 3 Zrotation Xrotation Yrotation
                    JOINT LeftFinger42
                    {
                      OFFSET -0.3575 -1.7167 -0.4742
                      CHANNELS 3 Zrotation Xrotation Yrotation
                      End Site
                      {
                        OFFSET -0.4187 -1.5237 -0.3496
                      }
                    }
                  }
                }
                JOINT LeftFinger0
                {
                  OFFSET -1.42 -1.8761 1.4223
                  CHANNELS 3 Zrotation Xrotation Yrotation
                  JOINT LeftFinger01
                  {
                    OFFSET -1.1471 -3.4929 2.6334
                    CHANNELS 3 Zrotation Xrotation Yrotation
                    JOINT LeftFinger02
                    {
                      OFFSET -0.823 -2.3 1.6571
                      CHANNELS 3 Zrotation Xrotation Yrotation
                      End Site
                      {
                        OFFSET -0.5822 -1.6914 1.1582
                      }
                    }
                  }
                }
              }
            }
          }
        }
        JOINT RightCollar
        {
          OFFSET -2.2603 21.606 7.4023
          CHANNELS 3 Zrotation Xrotation Yrotation
          JOINT RightShoulder
          {
            OFFSET -13.5187 -1.1334 -5.0155
            CHANNELS 3 Zrotation Xrotation Yrotation
            JOINT RightElbow
            {
              OFFSET 0.0994 -28.0499 -0.2431
              CHANNELS 3 Zrotation Xrotation Yrotation
              JOINT RightWrist
              {
                OFFSET -0.0679 -23.3996 -0.1402
                CHANNELS 3 Zrotation Xrotation Yrotation
                JOINT RightFinger1
                {
                  OFFSET -0.7932 -9.0691 2.5189
                  CHANNELS 3 Zrotation Xrotation Yrotation
                  JOINT RightFinger11
                  {
                    OFFSET 0.8272 -3.3923 0.5977
                    CHANNELS 3 Zrotation Xrotation Yrotation
                    JOINT RightFinger12
                    {
                      OFFSET 0.565 -2.3158 0.4082
                      CHANNELS 3 Zrotation Xrotation Yrotation
                      End Site
                      {
                        OFFSET 0.4919 -1.6479 0.2673
                      }
                    }
                  }
                }
                JOINT RightFinger2
                {
                  OFFSET -0.916 -9.2044 0.2193
                  CHANNELS 3 Zrotation Xrotation Yrotation
                  JOINT RightFinger21
                  {
                    OFFSET -0.0117 -4.1944 -0.0248
                    CHANNELS 3 Zrotation Xrotation Yrotation
                    JOINT RightFinger22
                    {
                      OFFSET -0.0071 -2.3249 -0.0142
                      CHANNELS 3 Zrotation Xrotation Yrotation
                      End Site
                      {
                        OFFSET 0.1475 -2.0882 0.0028
                      }
                    }
                  }
                }
                JOINT RightFinger3
                {
                  OFFSET -0.6113 -8.7231 -2.0637
                  CHANNELS 3 Zrotation Xrotation Yrotation
                  JOINT RightFinger31
                  {
                    OFFSET 0.1927 -3.8059 -0.2383
                    CHANNELS 3 Zrotation Xrotation Yrotation
                    JOINT RightFinger32
                    {
                      OFFSET 0.1091 -2.1688 -0.1362
                      CHANNELS 3 Zrotation Xrotation Yrotation
                      End Site
                      {
                        OFFSET 0.2358 -1.9176 -0.0906
                      }
                    }
                  }
                }
                JOINT RightFinger4
                {
                  OFFSET 0.6151 -8.0947 -3.564
                  CHANNELS 3 Zrotation Xrotation Yrotation
                  JOINT RightFinger41
                  {
                    OFFSET 0.4882 -2.341 -0.6462
                    CHANNELS 3 Zrotation Xrotation Yrotation
                    JOINT RightFinger42
                    {
                      OFFSET 0.3574 -1.7166 -0.4742
                      CHANNELS 3 Zrotation Xrotation Yrotation
                      End Site
                      {
                        OFFSET 0.4187 -1.5237 -0.3496
                      }
                    }
                  }
                }
                JOINT RightFinger0
                {
                  OFFSET 1.4199 -1.8761 1.4221
                  CHANNELS 3 Zrotation Xrotation Yrotation
                  JOINT RightFinger01
                  {
                    OFFSET 1.1472 -3.4929 2.6336
                    CHANNELS 3 Zrotation Xrotation Yrotation
                    JOINT RightFinger02
                    {
                      OFFSET 0.8229 -2.3 1.6571
                      CHANNELS 3 Zrotation Xrotation Yrotation
                      End Site
                      {
                        OFFSET 0.5822 -1.6914 1.1582
                      }
                    }
                  }
                }
              }
            }
          }
        }
      }
    }
  }
  JOINT RightHip
  {
    OFFSET -9.412 3.9771 -0.7758
    CHANNELS 3 Zrotation Xrotation Yrotation
    JOINT RightKnee
    {
      OFFSET -0.7531 -40.938 0
      CHANNELS 3 Zrotation Xrotation Yrotation
      JOINT RightAnkle
      {
        OFFSET 0 -40.1986 0
        CHANNELS 3 Zrotation Xrotation Yrotation
        JOINT RightToe
        {
          OFFSET 0 -4.4182 9.239
          CHANNELS 3 Zrotation Xrotation Yrotation
          End Site
          {
            OFFSET 0 0 6.1981
          }
        }
      }
    }
  }
  JOINT LeftHip
  {
    OFFSET 9.4119 3.9773 -0.7758
    CHANNELS 3 Zrotation Xrotation Yrotation
    JOINT LeftKnee
    {
      OFFSET 0.7532 -40.9383 0
      CHANNELS 3 Zrotation Xrotation Yrotation
      JOINT LeftAnkle
      {
        OFFSET 0 -40.1986 0
        CHANNELS 3 Zrotation Xrotation Yrotation
        JOINT LeftToe
        {
          OFFSET 0 -4.4182 9.239
          CHANNELS 3 Zrotation Xrotation Yrotation
          End Site
          {
            OFFSET 0 0 6.1981
          }
        }
      }
    }
  }
}
MOTION
Frames:	4
Frame Time:	0.0333333
40.0728 2.70206 5.72004 -179.984 -89.9981 -179.984 -2.14564 17.7256 -1.13054 -4.23217 35.4802 -1.64993 -4.23214 35.4799 -1.64993 0.000200011 12.0815 0.000148711 3.42993e-008 -7.82135 -2.25476e-006 -8.10078 -3.89089 -15.1929 24.4588 -49.2569 34.8825 -3.11028 -5.39275 -17.9121 1.66583 25.6904 -3.57332 4.77083e-015 3.18055e-015 3.18055e-015 1.59028e-015 9.54166e-015 -1.59028e-015 -7.14644e-007 -8.94751e-008 -1.51722e-006 4.77083e-015 3.18055e-015 3.18055e-015 -0.0127923 0.0023144 7.76446e-005 3.18055e-015 3.18055e-015 -3.18055e-015 4.77083e-015 3.18055e-015 3.18055e-015 -0.0160535 0.00299097 0.000853127 -4.7843e-006 -9.58901e-006 -5.58889e-006 4.77083e-015 3.18055e-015 3.18055e-015 -0.012562 0.00310128 0.00280891 2.19466e-006 6.54613e-006 3.49213e-006 4.77083e-015 3.18055e-015 3.18055e-015 1.59028e-015 9.54166e-015 -1.59028e-015 -7.14644e-007 -8.94751e-008 -1.51722e-006 -1.02081 -9.58581 11.2674 -18.9177 -14.5782 16.9055 101.837 -52.7839 47.3925 -32.9455 -37.5875 16.9425 3.18055e-015 0 -0 -1.59028e-015 9.54166e-015 7.95139e-016 0 9.54166e-015 -0 3.18055e-015 0 -0 0.0129555 0.00230819 -8.75294e-005 1.76556e-031 6.36111e-015 -1.59028e-015 3.18055e-015 0 -0 0.0162591 0.00302128 -0.000869934 0 0 -1.59028e-015 3.18055e-015 0 -0 0.0145802 0.00366578 -0.00326741 -3.97252e-031 -9.54166e-015 -2.38542e-015 3.18055e-015 0 -0 -1.59028e-015 9.54166e-015 7.95139e-016 0 9.54166e-015 -0 -45.5001 -41.8712 -0.631847 177.688 75.1126 179.689 -31.6008 23.3027 11.8685 9.54166e-015 4.77083e-015 -0 43.3439 -6.66593 -5.16493 -38.368 32.5759 18.5127 18.4998 40.1967 13.4444 2.42829e-006 -1.86095e-007 -8.0692e-007 
40.0728 2.70206 5.72004 179.994 -89.9981 179.994 -2.14564 17.7256 -1.13054 -4.23217 35.4802 -1.64993 -4.23214 35.4799 -1.64993 0.000199653 12.0815 0.000146171 -4.95129e-007 -7.82135 -1.64056e-006 -8.10078 -3.89089 -15.1929 24.4588 -49.2569 34.8825 -3.11028 -5.39275 -17.9121 1.66585 25.6905 -3.57334 7.95139e-015 3.18055e-015 4.77083e-015 4.77083e-015 -3.18055e-015 4.77083e-015 4.77083e-015 0 3.18055e-015 7.95139e-015 3.18055e-015 4.77083e-015 -0.0128574 0.00233489 8.28923e-005 1.45929e-006 8.82507e-006 6.96085e-006 7.95139e-015 3.18055e-015 4.77083e-015 -0.0160794 0.00301266 0.000863875 -5.8516e-006 -1.27918e-006 2.63766e-006 7.95139e-015 3.18055e-015 4.77083e-015 -0.0127045 0.00315705 0.00285607 -1.40759e-006 -1.18356e-005 -4.90705e-006 7.95139e-015 3.18055e-015 4.77083e-015 4.77083e-015 -3.18055e-015 4.77083e-015 4.77083e-015 0 3.18055e-015 -1.02081 -9.5858 11.2674 -18.9177 -14.5782 16.9055 101.837 -52.7839 47.3925 -32.9454 -37.5876 16.9425 1.59028e-015 -3.18055e-015 1.59028e-015 -0 0 7.95139e-016 8.82781e-032 -3.18055e-015 1.59028e-015 1.59028e-015 -3.18055e-015 1.59028e-015 0.0129471 0.00230769 -8.70787e-005 3.18055e-015 0 -7.95139e-016 1.59028e-015 -3.18055e-015 1.59028e-015 0.0163561 0.00304132 -0.000872564 -1.59028e-015 3.18055e-015 -7.95139e-016 1.59028e-015 -3.18055e-015 1.59028e-015 0.0145815 0.00367739 -0.00326798 -1.59028e-015 0 7.95139e-016 1.59028e-015 -3.18055e-015 1.59028e-015 -0 0 7.95139e-016 8.82781e-032 -3.18055e-015 1.59028e-015 -45.4983 -41.8726 -0.630632 177.686 75.1111 179.688 -31.6007 23.3027 11.8685 1.59028e-015 -1.8559e-006 -1.59028e-014 43.3439 -6.66596 -5.16492 -38.368 32.5759 18.5128 18.4999 40.1967 13.4444 -4.04716e-007 3.49714e-007 1.34486e-007 
40.0722 2.70215 5.86252 179.971 -89.9981 179.971 -2.13782 17.609 -1.1382 -4.21069 35.2473 -1.67386 -4.21066 35.247 -1.67386 0.000194409 12.489 0.000149305 -1.06756e-007 -7.00805 7.15508e-007 -8.3835 -3.47881 -15.1756 24.6397 -49.1935 35.0252 -3.11022 -5.39278 -17.9121 1.67785 25.8352 -3.70496 -3.18055e-015 0 -0 1.59028e-015 0 -1.59028e-015 -8.82781e-032 -3.18055e-015 -1.59028e-015 -3.18055e-015 0 -0 -0.0127909 0.00232418 8.00547e-005 -8.82781e-031 1.59028e-014 3.18055e-015 -3.18055e-015 0 -0 -0.0160877 0.00301418 0.000859487 -1.59028e-015 -6.36111e-015 3.18055e-015 -3.18055e-015 0 -0 -0.0125821 0.00311869 0.002823 -1.59028e-015 1.27222e-014 -0 -3.18055e-015 0 -0 1.59028e-015 0 -1.59028e-015 -8.82781e-032 -3.18055e-015 -1.59028e-015 -1.02082 -9.58576 11.2674 -18.9177 -14.5782 16.9055 101.183 -52.6082 46.5724 -33.1748 -36.1628 16.7967 2.73859e-006 -8.26975e-006 -2.22447e-006 -1.30793e-006 1.02308e-005 -1.82702e-006 3.17867e-006 1.28974e-006 -4.82836e-006 2.73859e-006 -8.26975e-006 -2.22447e-006 0.0128997 0.00230989 -8.49751e-005 2.24137e-006 -4.74274e-007 -2.96186e-006 2.73859e-006 -8.26975e-006 -2.22447e-006 0.0163519 0.00304425 -0.000880341 2.99506e-006 1.16681e-006 -5.21361e-006 2.73859e-006 -8.26975e-006 -2.22447e-006 0.014631 0.00369777 -0.00326702 -4.34007e-006 1.02193e-006 -8.25118e-007 2.73859e-006 -8.26975e-006 -2.22447e-006 -1.30793e-006 1.02308e-005 -1.82702e-006 3.17867e-006 1.28974e-006 -4.82836e-006 -45.6877 -41.9244 -0.743892 177.685 75.1167 179.689 -31.6026 23.3064 11.8695 -3.62735e-006 2.92796e-006 -1.17402e-005 43.4957 -6.81369 -5.15158 -38.7082 32.8394 18.6975 18.5131 40.0101 13.4968 1.47737e-006 3.73434e-006 -5.71913e-006 
40.0717 2.70222 5.9791 -179.984 -89.9981 -179.984 -2.13144 17.5136 -1.14443 -4.19324 35.0567 -1.6933 -4.19321 35.0565 -1.6933 0.000192801 12.8224 0.000148428 8.45439e-007 -6.34213 3.1357e-006 -8.61487 -3.14165 -15.1599 24.7873 -49.1413 35.1416 -3.11021 -5.39281 -17.9121 1.688 25.9537 -3.81284 3.18055e-015 6.36111e-015 6.36111e-015 3.18055e-015 3.18055e-015 1.59028e-015 1.59028e-015 3.18055e-015 3.18055e-015 3.18055e-015 6.36111e-015 6.36111e-015 -0.0128396 0.00235307 8.77001e-005 8.82781e-032 -3.18055e-015 1.59028e-015 3.18055e-015 6.36111e-015 6.36111e-015 -0.0160478 0.00302021 0.000869394 -3.96502e-006 6.14255e-007 -3.07578e-006 3.18055e-015 6.36111e-015 6.36111e-015 -0.0126053 0.00312917 0.00282731 3.18055e-015 0 4.77083e-015 3.18055e-015 6.36111e-015 6.36111e-015 3.18055e-015 3.18055e-015 1.59028e-015 1.59028e-015 3.18055e-015 3.18055e-015 -1.02082 -9.58576 11.2674 -18.9177 -14.5782 16.9055 100.654 -52.4598 45.9065 -33.3565 -34.9942 16.6842 0 0 -1.59028e-015 1.59028e-015 -6.36111e-015 -0 1.59028e-015 -6.36111e-015 -0 0 0 -1.59028e-015 0.0129217 0.00233199 -9.36911e-005 -1.59028e-015 -3.18055e-015 2.38542e-015 0 0 -1.59028e-015 0.0163244 0.00304542 -0.00087661 -1.59028e-015 3.18055e-015 1.59028e-015 0 0 -1.59028e-015 0.0145058 0.00366032 -0.00324473 -3.18055e-015 3.18055e-015 -7.95139e-016 0 0 -1.59028e-015 1.59028e-015 -6.36111e-015 -0 1.59028e-015 -6.36111e-015 -0 -45.8437 -41.9658 -0.837355 177.685 75.1219 179.689 -31.6041 23.3095 11.8703 9.15339e-006 -7.33091e-007 6.49638e-006 43.6201 -6.93469 -5.14032 -38.9886 33.0544 18.8509 18.5244 39.8571 13.5396 -4.78653e-006 1.10523e-005 -1.54429e-005 
